<?xml version="1.0" encoding="UTF-8" standalone="no"?>
<svg
   xmlns:dc="http://purl.org/dc/elements/1.1/"
   xmlns:cc="http://creativecommons.org/ns#"
   xmlns:rdf="http://www.w3.org/1999/02/22-rdf-syntax-ns#"
   xmlns:svg="http://www.w3.org/2000/svg"
   xmlns="http://www.w3.org/2000/svg"
   xmlns:xlink="http://www.w3.org/1999/xlink"
   xmlns:sodipodi="http://sodipodi.sourceforge.net/DTD/sodipodi-0.dtd"
   xmlns:inkscape="http://www.inkscape.org/namespaces/inkscape"
   sodipodi:docname="20banner.src.svg"
   inkscape:export-ydpi="30.24"
   inkscape:export-xdpi="30.24"
   inkscape:export-filename="C:\Users\patrickd\Dropbox\Public\gimp-web-static\content\images\frontpage\20banner.png"
   inkscape:version="1.0 (4035a4fb49, 2020-05-01)"
   version="1.1"
   id="svg4759"
   viewBox="0 0 744.09449 744.09448"
   height="210mm"
   width="210mm">
  <defs
     id="defs4761">
    <inkscape:perspective
       sodipodi:type="inkscape:persp3d"
       inkscape:vp_x="-50 : 600 : 1"
       inkscape:vp_y="0 : 1000 : 0"
       inkscape:vp_z="700 : 600 : 1"
       inkscape:persp3d-origin="300 : 400 : 1"
       id="perspective492" />
    <inkscape:perspective
       sodipodi:type="inkscape:persp3d"
       inkscape:vp_x="-50 : 600 : 1"
       inkscape:vp_y="0 : 1000 : 0"
       inkscape:vp_z="700 : 600 : 1"
       inkscape:persp3d-origin="300 : 400 : 1"
       id="perspective6270" />
    <linearGradient
       inkscape:collect="always"
       id="linearGradient8628">
      <stop
         style="stop-color:#ffffff;stop-opacity:1;"
         offset="0"
         id="stop8630" />
      <stop
         style="stop-color:#ffffff;stop-opacity:0;"
         offset="1"
         id="stop8632" />
    </linearGradient>
    <inkscape:perspective
       inkscape:persp3d-origin="300 : 400 : 1"
       inkscape:vp_z="700 : 600 : 1"
       inkscape:vp_y="0 : 1000 : 0"
       inkscape:vp_x="-50 : 600 : 1"
       id="perspective7525"
       sodipodi:type="inkscape:persp3d" />
    <linearGradient
       id="linearGradient6951">
      <stop
         id="stop6953"
         offset="0"
         style="stop-color:#6e3d09;stop-opacity:1;" />
      <stop
         style="stop-color:#ea8113;stop-opacity:1;"
         offset="0.24242425"
         id="stop6959" />
      <stop
         id="stop6961"
         offset="0.62121212"
         style="stop-color:#5c3307;stop-opacity:1;" />
      <stop
         id="stop6955"
         offset="1"
         style="stop-color:#e07c12;stop-opacity:1;" />
    </linearGradient>
    <linearGradient
       id="linearGradient6468">
      <stop
         id="stop6470"
         offset="0"
         style="stop-color:white;stop-opacity:1;" />
      <stop
         id="stop6472"
         offset="1"
         style="stop-color:#b9b9b0;stop-opacity:1;" />
    </linearGradient>
    <linearGradient
       id="linearGradient8542">
      <stop
         id="stop8544"
         offset="0"
         style="stop-color:#5b676b;stop-opacity:1;" />
      <stop
         id="stop8546"
         offset="1"
         style="stop-color:#141718;stop-opacity:1;" />
    </linearGradient>
    <linearGradient
       id="linearGradient6500">
      <stop
         id="stop6502"
         offset="0"
         style="stop-color:#857c63;stop-opacity:1;" />
      <stop
         id="stop6504"
         offset="1"
         style="stop-color:#221f19;stop-opacity:1;" />
    </linearGradient>
    <linearGradient
       id="linearGradient6492"
       inkscape:collect="always">
      <stop
         id="stop6494"
         offset="0"
         style="stop-color:black;stop-opacity:1;" />
      <stop
         id="stop6496"
         offset="1"
         style="stop-color:black;stop-opacity:0;" />
    </linearGradient>
    <linearGradient
       id="linearGradient6939">
      <stop
         id="stop6941"
         offset="0"
         style="stop-color:#bdbdbd;stop-opacity:1;" />
      <stop
         style="stop-color:#e2e2e2;stop-opacity:1;"
         offset="0.33333334"
         id="stop6947" />
      <stop
         id="stop6949"
         offset="0.66666669"
         style="stop-color:#a3a3a3;stop-opacity:1;" />
      <stop
         id="stop6943"
         offset="1"
         style="stop-color:#dddddd;stop-opacity:1;" />
    </linearGradient>
    <linearGradient
       id="linearGradient6536">
      <stop
         id="stop6538"
         offset="0"
         style="stop-color:#d87711;stop-opacity:1;" />
      <stop
         style="stop-color:#f3ae66;stop-opacity:1;"
         offset="0.24242425"
         id="stop6540" />
      <stop
         id="stop6542"
         offset="0.62121212"
         style="stop-color:#713e08;stop-opacity:1;" />
      <stop
         id="stop6544"
         offset="1"
         style="stop-color:#e07c12;stop-opacity:1;" />
    </linearGradient>
    <linearGradient
       id="linearGradient6963">
      <stop
         id="stop6965"
         offset="0"
         style="stop-color:#696969;stop-opacity:1;" />
      <stop
         id="stop6967"
         offset="1"
         style="stop-color:#000000;stop-opacity:1;" />
    </linearGradient>
    <clipPath
       id="clipPath7948"
       clipPathUnits="userSpaceOnUse">
      <path
         sodipodi:nodetypes="cccccc"
         id="path7950"
         d="M 126,141.25 C 139.63429,141.22134 156.69591,137.76429 169.875,119.25 L 254.5,182 L 258,260.5 L 159,209.5 L 126,141.25 z"
         style="opacity:0.57831325;fill:#000000;fill-opacity:1;fill-rule:evenodd;stroke:none;stroke-width:20;stroke-linecap:round;stroke-linejoin:miter;marker:none;marker-start:none;marker-mid:none;marker-end:none;stroke-miterlimit:4;stroke-dasharray:none;stroke-dashoffset:0;stroke-opacity:1;visibility:visible;display:inline;overflow:visible;enable-background:accumulate" />
    </clipPath>
    <linearGradient
       id="linearGradient5596">
      <stop
         style="stop-color:#000000;stop-opacity:0;"
         offset="0"
         id="stop5598" />
      <stop
         id="stop5604"
         offset="0.88095236"
         style="stop-color:#000000;stop-opacity:0;" />
      <stop
         style="stop-color:#000000;stop-opacity:1;"
         offset="1"
         id="stop5600" />
    </linearGradient>
    <linearGradient
       id="linearGradient6193">
      <stop
         style="stop-color:#ffffff;stop-opacity:1;"
         offset="0"
         id="stop6195" />
      <stop
         id="stop6197"
         offset="0.83333331"
         style="stop-color:#c3c3c3;stop-opacity:1" />
      <stop
         style="stop-color:#f0f0f0;stop-opacity:1;"
         offset="1"
         id="stop6199" />
    </linearGradient>
    <linearGradient
       id="linearGradient6457">
      <stop
         style="stop-color:#5b676b;stop-opacity:1;"
         offset="0"
         id="stop6459" />
      <stop
         id="stop6463"
         offset="0.81573331"
         style="stop-color:#000000;stop-opacity:1" />
      <stop
         style="stop-color:#606e73;stop-opacity:1"
         offset="1"
         id="stop6461" />
    </linearGradient>
    <clipPath
       id="clipPath6405"
       clipPathUnits="userSpaceOnUse">
      <path
         sodipodi:nodetypes="csscccc"
         id="path6407"
         d="M 78.352199,58.820687 C 78.352199,58.820687 92.98829,89.126572 127.22851,88.2716 C 198.98314,86.464009 211.56568,48.878929 213.36586,43.456149 C 215.16604,38.03337 217.92054,38.85478 218.55737,43.866523 C 241.95974,257.16247 56.148281,165.6455 49.549281,129.31681 C 78.953017,119.97125 76.952106,109.18393 77.452106,97.683932 L 78.352199,58.820687 z"
         style="fill:none;fill-opacity:1;fill-rule:evenodd;stroke:#000000;stroke-width:0.9999997;stroke-linecap:butt;stroke-linejoin:miter;marker:none;marker-start:none;marker-mid:none;marker-end:none;stroke-miterlimit:10;stroke-dasharray:none;stroke-dashoffset:0;stroke-opacity:1;visibility:visible;display:inline;overflow:visible" />
    </clipPath>
    <linearGradient
       id="linearGradient6275">
      <stop
         id="stop6277"
         offset="0"
         style="stop-color:#c0baab;stop-opacity:1" />
      <stop
         id="stop6279"
         offset="1"
         style="stop-color:#bfb9a9;stop-opacity:0.17647059;" />
    </linearGradient>
    <linearGradient
       id="linearGradient6597">
      <stop
         id="stop6599"
         offset="0"
         style="stop-color:#b5ae9c;stop-opacity:1;" />
      <stop
         style="stop-color:#8e8469;stop-opacity:1;"
         offset="0.3416886"
         id="stop6605" />
      <stop
         style="stop-color:#39352a;stop-opacity:1;"
         offset="0.64237297"
         id="stop6601" />
      <stop
         id="stop6603"
         offset="1"
         style="stop-color:#5c5443;stop-opacity:1;" />
    </linearGradient>
    <inkscape:perspective
       inkscape:persp3d-origin="300 : 400 : 1"
       inkscape:vp_z="700 : 600 : 1"
       inkscape:vp_y="0 : 1000 : 0"
       inkscape:vp_x="-50 : 600 : 1"
       id="perspective6301"
       sodipodi:type="inkscape:persp3d" />
    <clipPath
       id="clipPath11269"
       clipPathUnits="userSpaceOnUse">
      <path
         inkscape:export-ydpi="74.800003"
         inkscape:export-xdpi="74.800003"
         inkscape:export-filename="../../home/jimmac/ximian_art/icons/nautilus/suse93/gnome-fs-directory.html"
         sodipodi:nodetypes="cscccscc"
         id="path11271"
         d="M 216.0087,214.87259 C 222.29139,214.62832 226.79062,208.79472 227.25175,202.00499 C 231.60054,137.97933 236.24159,85.543147 236.24159,85.543147 C 236.6379,84.171102 235.31938,82.050493 233.6045,82.050493 L 46.313329,82.175255 C 46.313329,82.175255 34.787131,202.78102 34.787131,202.78102 C 34.157954,208.22557 33.102652,212.78633 27.149878,214.88748 L 216.0087,214.87259 z"
         style="fill:none;fill-opacity:1;fill-rule:nonzero;stroke:#204a87;stroke-width:1;stroke-linecap:butt;stroke-linejoin:round;marker:none;marker-start:none;marker-mid:none;marker-end:none;stroke-miterlimit:4;stroke-dasharray:none;stroke-dashoffset:0;stroke-opacity:1;visibility:visible;display:block" />
    </clipPath>
    <clipPath
       id="clipPath11237"
       clipPathUnits="userSpaceOnUse">
      <path
         sodipodi:nodetypes="ccccccssssccc"
         style="fill:none;fill-opacity:1;fill-rule:nonzero;stroke:#000000;stroke-width:1;stroke-linecap:round;stroke-linejoin:round;stroke-miterlimit:4;stroke-dasharray:none;stroke-opacity:1"
         id="path11239"
         d="M 22.338532,208.60944 C 22.458246,210.91344 24.864496,213.21744 27.150989,213.21744 L 199.21021,213.21744 C 201.4967,213.21744 203.66348,210.91344 203.54378,208.60944 L 198.40049,57.92604 C 198.28077,55.622057 195.87457,53.068018 193.58808,53.068018 L 120.69969,53.068018 C 118.03559,53.068018 113.91953,51.571424 113.00136,47.193481 L 109.64338,31.182094 C 108.86482,27.469793 105.29795,26.002271 103.01146,26.000525 L 21.153164,25.938025 C 18.866626,25.938025 16.887347,27.742016 17.007057,30.046006 L 22.338532,208.60944 z" />
    </clipPath>
    <linearGradient
       id="linearGradient3983">
      <stop
         style="stop-color:#ffffff;stop-opacity:0.87628865;"
         offset="0.0000000"
         id="stop3984" />
      <stop
         style="stop-color:#fffffe;stop-opacity:0.0000000;"
         offset="1.0000000"
         id="stop3985" />
    </linearGradient>
    <linearGradient
       id="linearGradient3096">
      <stop
         id="stop3098"
         offset="0"
         style="stop-color:#424242;stop-opacity:1;" />
      <stop
         id="stop3100"
         offset="1.0000000"
         style="stop-color:#777777;stop-opacity:1.0000000;" />
    </linearGradient>
    <linearGradient
       id="linearGradient5048">
      <stop
         style="stop-color:black;stop-opacity:0;"
         offset="0"
         id="stop5050" />
      <stop
         id="stop5056"
         offset="0.5"
         style="stop-color:black;stop-opacity:1;" />
      <stop
         style="stop-color:black;stop-opacity:0;"
         offset="1"
         id="stop5052" />
    </linearGradient>
    <linearGradient
       id="linearGradient9766">
      <stop
         id="stop7348"
         offset="0"
         style="stop-color:#3468a0;stop-opacity:1;" />
      <stop
         id="stop5904"
         offset="0.22157434"
         style="stop-color:#5d91c9;stop-opacity:1;" />
      <stop
         style="stop-color:#8bb0d9;stop-opacity:1;"
         offset="0.59259939"
         id="stop7350" />
      <stop
         style="stop-color:#74a2d1;stop-opacity:1;"
         offset="1"
         id="stop9770" />
    </linearGradient>
    <linearGradient
       id="linearGradient5729">
      <stop
         style="stop-color:#000000;stop-opacity:1;"
         offset="0"
         id="stop5731" />
      <stop
         style="stop-color:#ffffff;stop-opacity:1;"
         offset="1"
         id="stop5733" />
    </linearGradient>
    <linearGradient
       inkscape:collect="always"
       xlink:href="#linearGradient5729"
       id="linearGradient5750"
       gradientUnits="userSpaceOnUse"
       gradientTransform="translate(-240,-300)"
       x1="-9"
       y1="144"
       x2="249"
       y2="144" />
    <mask
       maskUnits="userSpaceOnUse"
       id="mask5746">
      <rect
         style="opacity:1;color:#000000;fill:url(#linearGradient5750);fill-opacity:1;fill-rule:evenodd;stroke:none;stroke-width:1;stroke-linecap:round;stroke-linejoin:round;marker:none;marker-start:none;marker-mid:none;marker-end:none;stroke-miterlimit:4;stroke-dasharray:none;stroke-dashoffset:0;stroke-opacity:1;visibility:visible;display:inline;overflow:visible;enable-background:accumulate"
         id="rect5748"
         width="258"
         height="266"
         x="-249"
         y="-289"
         rx="6.7107968"
         ry="4.7590232"
         transform="scale(-1,1)" />
    </mask>
    <linearGradient
       id="linearGradient1789">
      <stop
         style="stop-color:#767676;stop-opacity:1;"
         offset="0"
         id="stop1790" />
      <stop
         style="stop-color:#b9b9b9;stop-opacity:1.0000000;"
         offset="1.0000000"
         id="stop1791" />
    </linearGradient>
    <linearGradient
       y2="50.770691"
       x2="20.796143"
       y1="26.383648"
       x1="21.354231"
       gradientTransform="matrix(6.0271108,0,0,4.1093971,12.96105,19.787734)"
       gradientUnits="userSpaceOnUse"
       id="linearGradient13970"
       xlink:href="#linearGradient8628"
       inkscape:collect="always" />
    <linearGradient
       y2="50.770691"
       x2="20.796143"
       y1="26.383648"
       x1="21.354231"
       gradientTransform="matrix(1.1841554,0,0,0.8073794,0.5136511,0.6653826)"
       gradientUnits="userSpaceOnUse"
       id="linearGradient13974"
       xlink:href="#linearGradient8628"
       inkscape:collect="always" />
    <linearGradient
       y2="50.770691"
       x2="20.796143"
       y1="26.383648"
       x1="21.354231"
       gradientTransform="matrix(0.7803118,0,0,0.5320312,1.2835246,1.390695)"
       gradientUnits="userSpaceOnUse"
       id="linearGradient13978"
       xlink:href="#linearGradient8628"
       inkscape:collect="always" />
    <linearGradient
       y2="50.770691"
       x2="20.796143"
       y1="26.383648"
       x1="21.354231"
       gradientTransform="matrix(0.8108507,0,6.0966242e-2,0.5528531,-6.6523993,-1.5833754)"
       gradientUnits="userSpaceOnUse"
       id="linearGradient14008"
       xlink:href="#linearGradient8628"
       inkscape:collect="always" />
    <linearGradient
       y2="50.770691"
       x2="20.796143"
       y1="26.383648"
       x1="21.354231"
       gradientTransform="matrix(0.6649412,0,0,0.4533693,3.1651709,3.0580875)"
       gradientUnits="userSpaceOnUse"
       id="linearGradient5135"
       xlink:href="#linearGradient8628"
       inkscape:collect="always" />
    <inkscape:perspective
       sodipodi:type="inkscape:persp3d"
       id="perspective6755"
       inkscape:vp_x="-50 : 600 : 1"
       inkscape:vp_y="0 : 1000 : 0"
       inkscape:vp_z="700 : 600 : 1"
       inkscape:persp3d-origin="300 : 400 : 1" />
    <inkscape:perspective
       sodipodi:type="inkscape:persp3d"
       id="perspective6768"
       inkscape:vp_x="-50 : 600 : 1"
       inkscape:vp_y="0 : 1000 : 0"
       inkscape:vp_z="700 : 600 : 1"
       inkscape:persp3d-origin="300 : 400 : 1" />
    <linearGradient
       inkscape:collect="always"
       xlink:href="#linearGradient6492"
       id="linearGradient8540"
       x1="26.162951"
       y1="30.543303"
       x2="24.328892"
       y2="30.985245"
       gradientUnits="userSpaceOnUse" />
    <radialGradient
       inkscape:collect="always"
       xlink:href="#linearGradient6500"
       id="radialGradient8522"
       gradientUnits="userSpaceOnUse"
       gradientTransform="matrix(1.77275,-1.847562e-16,1.351402e-16,1.29668,-16.3404,-6.615959)"
       cx="18.557627"
       cy="22.300018"
       fx="18.557627"
       fy="22.300018"
       r="19.2292" />
    <linearGradient
       inkscape:collect="always"
       xlink:href="#linearGradient6492"
       id="linearGradient6488"
       x1="32.350136"
       y1="28.083355"
       x2="21.213203"
       y2="30.293064"
       gradientUnits="userSpaceOnUse"
       gradientTransform="translate(-3.836549,0.345971)" />
    <radialGradient
       inkscape:collect="always"
       xlink:href="#linearGradient11520"
       id="radialGradient1366"
       gradientUnits="userSpaceOnUse"
       gradientTransform="matrix(2.049266,-1.696401e-32,0,2.049266,-25.65002,-37.31089)"
       cx="24.44569"
       cy="35.87817"
       fx="24.44569"
       fy="35.87817"
       r="20.530962" />
    <radialGradient
       inkscape:collect="always"
       xlink:href="#linearGradient6492"
       id="radialGradient1356"
       gradientUnits="userSpaceOnUse"
       gradientTransform="matrix(1,0,0,0.338462,2.220359e-14,29.48178)"
       cx="30.203562"
       cy="44.565483"
       fx="30.203562"
       fy="44.565483"
       r="6.5659914" />
    <radialGradient
       inkscape:collect="always"
       xlink:href="#linearGradient11494"
       id="radialGradient1354"
       gradientUnits="userSpaceOnUse"
       gradientTransform="matrix(1.243453,2.106784e-16,-2.106784e-16,1.243453,-6.713754,-3.742847)"
       cx="27.577173"
       cy="15.048258"
       fx="27.577173"
       fy="15.048258"
       r="3.8335035" />
    <radialGradient
       inkscape:collect="always"
       xlink:href="#linearGradient11494"
       id="radialGradient1352"
       gradientUnits="userSpaceOnUse"
       gradientTransform="matrix(1.243453,2.106784e-16,-2.106784e-16,1.243453,-6.713754,-3.742847)"
       cx="27.577173"
       cy="16.049133"
       fx="27.577173"
       fy="16.049133"
       r="3.8335035" />
    <radialGradient
       inkscape:collect="always"
       xlink:href="#linearGradient11520"
       id="radialGradient1350"
       gradientUnits="userSpaceOnUse"
       gradientTransform="matrix(1.995058,-1.651527e-32,0,1.995058,-24.32488,-35.70087)"
       cx="24.44569"
       cy="35.87817"
       fx="24.44569"
       fy="35.87817"
       r="20.530962" />
    <radialGradient
       inkscape:collect="always"
       xlink:href="#linearGradient6492"
       id="radialGradient1348"
       gradientUnits="userSpaceOnUse"
       gradientTransform="matrix(1,0,0,0.338462,-1.353344e-14,29.48178)"
       cx="30.203562"
       cy="44.565483"
       fx="30.203562"
       fy="44.565483"
       r="6.5659914" />
    <radialGradient
       r="6.5659914"
       fy="44.565483"
       fx="30.203562"
       cy="44.565483"
       cx="30.203562"
       gradientTransform="matrix(1,0,0,0.338462,3.185827e-15,29.48178)"
       gradientUnits="userSpaceOnUse"
       id="radialGradient11532"
       xlink:href="#linearGradient6492"
       inkscape:collect="always" />
    <radialGradient
       gradientTransform="matrix(1.995058,-1.651527e-32,0,1.995058,-24.32488,-35.70087)"
       gradientUnits="userSpaceOnUse"
       r="20.530962"
       fy="35.87817"
       fx="24.44569"
       cy="35.87817"
       cx="24.44569"
       id="radialGradient11526"
       xlink:href="#linearGradient11520"
       inkscape:collect="always" />
    <radialGradient
       gradientUnits="userSpaceOnUse"
       gradientTransform="matrix(1,0,0,0.338462,2.166583e-14,29.48178)"
       r="6.5659914"
       fy="44.565483"
       fx="30.203562"
       cy="44.565483"
       cx="30.203562"
       id="radialGradient11514"
       xlink:href="#linearGradient6492"
       inkscape:collect="always" />
    <radialGradient
       r="3.8335035"
       fy="16.049133"
       fx="27.577173"
       cy="16.049133"
       cx="27.577173"
       gradientTransform="matrix(1.243453,2.106784e-16,-2.106784e-16,1.243453,-6.713754,-3.742847)"
       gradientUnits="userSpaceOnUse"
       id="radialGradient11504"
       xlink:href="#linearGradient11494"
       inkscape:collect="always" />
    <radialGradient
       gradientTransform="matrix(1.243453,2.106784e-16,-2.106784e-16,1.243453,-6.713754,-3.742847)"
       gradientUnits="userSpaceOnUse"
       r="3.8335035"
       fy="15.048258"
       fx="27.577173"
       cy="15.048258"
       cx="27.577173"
       id="radialGradient11500"
       xlink:href="#linearGradient11494"
       inkscape:collect="always" />
    <radialGradient
       r="8.5"
       fy="39.142857"
       fx="12.071428"
       cy="39.142857"
       cx="12.071428"
       gradientTransform="matrix(1,0,0,0.487395,0,20.06483)"
       gradientUnits="userSpaceOnUse"
       id="radialGradient11441"
       xlink:href="#linearGradient6492"
       inkscape:collect="always" />
    <linearGradient
       y2="33.462429"
       x2="26.758644"
       y1="19.774456"
       x1="13.267134"
       gradientTransform="translate(-60.85714,0.428571)"
       gradientUnits="userSpaceOnUse"
       id="linearGradient11439"
       xlink:href="#linearGradient11415"
       inkscape:collect="always" />
    <linearGradient
       gradientTransform="translate(-60.57143,0)"
       y2="39.033859"
       x2="35.679932"
       y1="9.3458843"
       x1="9.6957054"
       gradientUnits="userSpaceOnUse"
       id="linearGradient11427"
       xlink:href="#linearGradient11415"
       inkscape:collect="always" />
    <linearGradient
       gradientTransform="translate(-60.28571,-0.285714)"
       y2="34.462429"
       x2="43.615788"
       y1="3.774456"
       x1="15.82836"
       gradientUnits="userSpaceOnUse"
       id="linearGradient11425"
       xlink:href="#linearGradient11415"
       inkscape:collect="always" />
    <linearGradient
       id="linearGradient11415">
      <stop
         id="stop11417"
         offset="0.0000000"
         style="stop-color:#204a87;stop-opacity:0.0000000;" />
      <stop
         style="stop-color:#204a87;stop-opacity:1.0000000;"
         offset="0.50000000"
         id="stop11423" />
      <stop
         id="stop11419"
         offset="1"
         style="stop-color:#204a87;stop-opacity:0;" />
    </linearGradient>
    <linearGradient
       id="linearGradient11494"
       inkscape:collect="always">
      <stop
         id="stop11496"
         offset="0"
         style="stop-color:#ef2929;stop-opacity:1;" />
      <stop
         id="stop11498"
         offset="1"
         style="stop-color:#ef2929;stop-opacity:0;" />
    </linearGradient>
    <linearGradient
       id="linearGradient11520">
      <stop
         id="stop11522"
         offset="0.0000000"
         style="stop-color:#ffffff;stop-opacity:1.0000000;" />
      <stop
         id="stop11524"
         offset="1.0000000"
         style="stop-color:#dcdcdc;stop-opacity:1.0000000;" />
    </linearGradient>
    <inkscape:perspective
       sodipodi:type="inkscape:persp3d"
       id="perspective6888"
       inkscape:vp_x="-50 : 600 : 1"
       inkscape:vp_y="0 : 1000 : 0"
       inkscape:vp_z="700 : 600 : 1"
       inkscape:persp3d-origin="300 : 400 : 1" />
    <inkscape:perspective
       id="perspective18062"
       inkscape:persp3d-origin="0.5 : 0.33333333 : 1"
       inkscape:vp_z="1 : 0.5 : 1"
       inkscape:vp_y="0 : 1000 : 0"
       inkscape:vp_x="0 : 0.5 : 1"
       sodipodi:type="inkscape:persp3d" />
    <filter
       height="1.0467743"
       y="-0.023387156"
       width="1.0492578"
       x="-0.024628904"
       id="filter6822"
       style="color-interpolation-filters:sRGB"
       inkscape:collect="always">
      <feGaussianBlur
         id="feGaussianBlur6824"
         stdDeviation="7.0511287"
         inkscape:collect="always" />
    </filter>
  </defs>
  <sodipodi:namedview
     inkscape:document-rotation="0"
     inkscape:snap-global="true"
     inkscape:window-maximized="1"
     inkscape:window-y="-6"
     inkscape:window-x="-6"
     inkscape:window-height="838"
     inkscape:window-width="1600"
     inkscape:bbox-nodes="true"
     inkscape:object-nodes="true"
     inkscape:snap-page="true"
     inkscape:snap-bbox="true"
     showgrid="false"
     inkscape:current-layer="text6788"
     inkscape:document-units="px"
     inkscape:cy="268.99474"
     inkscape:cx="458.36578"
     inkscape:zoom="0.49497475"
     inkscape:pageshadow="2"
     inkscape:pageopacity="0.0"
     borderopacity="1.0"
     bordercolor="#666666"
     pagecolor="#ffffff"
     id="base" />
  <metadata
     id="metadata4764">
    <rdf:RDF>
      <cc:Work
         rdf:about="">
        <dc:format>image/svg+xml</dc:format>
        <dc:type
           rdf:resource="http://purl.org/dc/dcmitype/StillImage" />
        <dc:title></dc:title>
      </cc:Work>
    </rdf:RDF>
  </metadata>
  <g
     transform="translate(0,-308.26772)"
     id="layer1"
     inkscape:groupmode="layer"
     inkscape:label="Layer 1">
    <g
       transform="translate(754.4786,-127.86459)"
       id="g6081"
       style="enable-background:new">
      <g
         style="display:none"
         inkscape:label="baseplate"
         id="layer3">
        <rect
           inkscape:label="256x256"
           y="20"
           x="20"
           height="256"
           width="256"
           id="rect6282"
           style="display:inline;overflow:visible;visibility:visible;fill:#eeeeec;fill-opacity:1;fill-rule:nonzero;stroke:none;stroke-width:2;marker:none;enable-background:accumulate" />
        <rect
           style="display:inline;overflow:visible;visibility:visible;fill:#eeeeec;fill-opacity:1;fill-rule:nonzero;stroke:none;stroke-width:2;marker:none;enable-background:accumulate"
           id="rect6284"
           width="48"
           height="48"
           x="296.0625"
           y="39.99633"
           inkscape:label="48x48" />
        <rect
           inkscape:label="32x32"
           y="115.99633"
           x="303"
           height="32"
           width="32"
           id="rect6592"
           style="display:inline;overflow:visible;visibility:visible;fill:#eeeeec;fill-opacity:1;fill-rule:nonzero;stroke:none;stroke-width:2;marker:none;enable-background:accumulate" />
        <rect
           style="display:inline;overflow:visible;visibility:visible;fill:#eeeeec;fill-opacity:1;fill-rule:nonzero;stroke:none;stroke-width:2;marker:none;enable-background:accumulate"
           id="rect6749"
           width="22"
           height="22"
           x="303"
           y="167.05884"
           inkscape:label="22x22" />
        <rect
           inkscape:label="16x16"
           y="209"
           x="303"
           height="16"
           width="16"
           id="rect6833"
           style="display:inline;overflow:visible;visibility:visible;fill:#eeeeec;fill-opacity:1;fill-rule:nonzero;stroke:none;stroke-width:2;marker:none;enable-background:accumulate" />
        <rect
           inkscape:label="24x24"
           y="165.95343"
           x="301.95709"
           height="24"
           width="24"
           id="rect5028"
           style="display:inline;overflow:visible;visibility:visible;fill:#eeeeec;fill-opacity:1;fill-rule:nonzero;stroke:none;stroke-width:2;marker:none;enable-background:accumulate" />
        <text
           xml:space="preserve"
           style="font-style:normal;font-variant:normal;font-weight:normal;font-stretch:normal;line-height:0%;font-family:'Trebuchet MS';-inkscape-font-specification:'Trebuchet MS';text-align:start;writing-mode:lr-tb;text-anchor:start;display:inline;fill:#000000;fill-opacity:1;stroke:none;enable-background:new"
           x="21"
           y="-18.999996"
           id="context"
           inkscape:label="context"><tspan
             style="font-size:20px;line-height:1.25"
             sodipodi:role="line"
             id="tspan16843"
             x="21"
             y="-18.999996">apps</tspan></text>
        <text
           xml:space="preserve"
           style="font-style:normal;font-variant:normal;font-weight:normal;font-stretch:normal;line-height:0%;font-family:'Trebuchet MS';-inkscape-font-specification:'Trebuchet MS';text-align:start;writing-mode:lr-tb;text-anchor:start;display:inline;fill:#000000;fill-opacity:1;stroke:none;enable-background:new"
           x="159"
           y="-18.999996"
           id="icon-name"
           inkscape:label="icon-name"><tspan
             style="font-size:20px;line-height:1.25"
             sodipodi:role="line"
             id="tspan16847"
             x="159"
             y="-18.999996">gimp</tspan></text>
      </g>
      <g
         style="display:inline"
         inkscape:label="artwork"
         id="layer1-0">
        <g
           id="g6814"
           transform="translate(-291.24202,24.643982)" />
        <g
           id="g6222"
           transform="translate(24.1276,-219.80931)">
          <g
             transform="translate(72.142857,219.28571)"
             id="g6466"
             clip-path="url(#clipPath7948)">
            <g
               transform="matrix(-0.1899103,0.5086471,-0.5087283,-0.1899408,276.0542,112.28478)"
               id="g6474" />
          </g>
        </g>
      </g>
    </g>
    <g
       transform="matrix(0.70710678,-0.70710678,0.70710678,0.70710678,-931.09662,1050.1545)"
       id="g6778">
      <rect
         transform="matrix(1.0004372,0,0,0.94999684,-0.51718655,24.869413)"
         style="color:#000000;display:inline;overflow:visible;visibility:visible;opacity:1;fill:#000000;fill-opacity:1;stroke:#000000;stroke-width:2;stroke-linecap:butt;stroke-linejoin:round;stroke-miterlimit:10;stroke-dasharray:none;stroke-dashoffset:0;stroke-opacity:1;marker:none;enable-background:accumulate;filter:url(#filter6822)"
         id="rect6796"
         width="815.71429"
         height="164.28572"
         x="775.12079"
         y="329.50507" />
      <rect
         y="329.50507"
         x="775.12079"
         height="164.28572"
         width="815.71429"
         id="rect6780"
         style="color:#000000;display:inline;overflow:visible;visibility:visible;opacity:1;fill:#ffffff;fill-opacity:1;stroke:#000000;stroke-width:2;stroke-linecap:butt;stroke-linejoin:round;stroke-miterlimit:10;stroke-dasharray:none;stroke-dashoffset:0;stroke-opacity:1;marker:none;enable-background:accumulate" />
      <g
         transform="translate(9.1552734e-5,-1.5565872)"
         id="g6782">
        <g
           style="font-style:normal;font-variant:normal;font-weight:normal;font-stretch:normal;line-height:0%;font-family:Questrial;-inkscape-font-specification:'Questrial, Normal';text-align:start;letter-spacing:0px;word-spacing:0px;writing-mode:lr-tb;text-anchor:start;fill:#777777;fill-opacity:1;stroke:none;stroke-width:1px;stroke-linecap:butt;stroke-linejoin:miter;stroke-opacity:1"
           id="text6784"
           aria-label="Celebrating">
          <path
             id="path191"
             style="font-size:62.5px;line-height:1.25"
             d="m 1060.796,345.39258 v 6.50024 q -3.1128,-2.89917 -6.6529,-4.33349 -3.5095,-1.43433 -7.4768,-1.43433 -7.8125,0 -11.9629,4.79126 -4.1504,4.76074 -4.1504,13.79395 0,9.00268 4.1504,13.79394 4.1504,4.76074 11.9629,4.76074 3.9673,0 7.4768,-1.43432 3.5401,-1.43433 6.6529,-4.3335 v 6.43921 q -3.2349,2.19726 -6.8665,3.2959 -3.6011,1.09863 -7.6294,1.09863 -10.3454,0 -16.2964,-6.31714 -5.9509,-6.34765 -5.9509,-17.30346 0,-10.98633 5.9509,-17.30347 5.951,-6.34766 16.2964,-6.34766 4.0894,0 7.6904,1.09863 3.6316,1.06812 6.8055,3.23487 z" />
          <path
             id="path193"
             style="font-size:62.5px;line-height:1.25"
             d="m 1099.3702,368.95215 v 2.74658 h -25.8179 q 0.3662,5.79834 3.479,8.8501 3.1433,3.02124 8.728,3.02124 3.2349,0 6.2561,-0.79346 3.0518,-0.79346 6.0425,-2.38037 v 5.31006 q -3.0212,1.28174 -6.195,1.95312 -3.1739,0.67139 -6.4393,0.67139 -8.1787,0 -12.9699,-4.76074 -4.7608,-4.76074 -4.7608,-12.87842 0,-8.39233 4.5166,-13.30566 4.5472,-4.94385 12.2376,-4.94385 6.897,0 10.8948,4.45557 4.0283,4.42504 4.0283,12.05444 z m -5.6153,-1.64795 q -0.061,-4.60816 -2.594,-7.35474 -2.5024,-2.74658 -6.6528,-2.74658 -4.6997,0 -7.5378,2.65503 -2.8076,2.65503 -3.2349,7.47681 z" />
          <path
             id="path195"
             style="font-size:62.5px;line-height:1.25"
             d="m 1108.5865,339.96045 h 5.6152 v 47.48535 h -5.6152 z" />
          <path
             id="path197"
             style="font-size:62.5px;line-height:1.25"
             d="m 1155.1563,368.95215 v 2.74658 h -25.8179 q 0.3663,5.79834 3.479,8.8501 3.1434,3.02124 8.7281,3.02124 3.2348,0 6.2561,-0.79346 3.0517,-0.79346 6.0425,-2.38037 v 5.31006 q -3.0213,1.28174 -6.1951,1.95312 -3.1738,0.67139 -6.4392,0.67139 -8.1787,0 -12.97,-4.76074 -4.7607,-4.76074 -4.7607,-12.87842 0,-8.39233 4.5166,-13.30566 4.5471,-4.94385 12.2375,-4.94385 6.897,0 10.8948,4.45557 4.0283,4.42504 4.0283,12.05444 z m -5.6152,-1.64795 q -0.061,-4.60816 -2.594,-7.35474 -2.5025,-2.74658 -6.6528,-2.74658 -4.6998,0 -7.5379,2.65503 -2.8076,2.65503 -3.2349,7.47681 z" />
          <path
             id="path199"
             style="font-size:62.5px;line-height:1.25"
             d="m 1188.9088,370.38647 q 0,-6.19506 -2.5635,-9.70459 -2.533,-3.54003 -6.9885,-3.54003 -4.4556,0 -7.0191,3.54003 -2.533,3.50953 -2.533,9.70459 0,6.19507 2.533,9.73511 2.5635,3.50952 7.0191,3.50952 4.4555,0 6.9885,-3.50952 2.5635,-3.54004 2.5635,-9.73511 z m -19.1041,-11.93237 q 1.7701,-3.05176 4.4556,-4.5166 2.7161,-1.49536 6.4697,-1.49536 6.2256,0 10.1014,4.94385 3.9062,4.94384 3.9062,13.00048 0,8.05665 -3.9062,13.00049 -3.8758,4.94385 -10.1014,4.94385 -3.7536,0 -6.4697,-1.46484 -2.6855,-1.49536 -4.4556,-4.54712 v 5.12695 h -5.6457 v -47.48535 h 5.6457 z" />
          <path
             id="path201"
             style="font-size:62.5px;line-height:1.25"
             d="m 1223.8514,358.51514 q -0.9461,-0.54932 -2.0752,-0.79346 -1.0986,-0.27466 -2.4414,-0.27466 -4.7608,0 -7.3242,3.11279 -2.533,3.08228 -2.533,8.88062 v 18.00537 h -5.6458 v -34.17969 h 5.6458 v 5.31006 q 1.77,-3.11279 4.6082,-4.60815 2.8381,-1.52588 6.8969,-1.52588 0.5799,0 1.2818,0.0915 0.7019,0.061 1.5564,0.21362 z" />
          <path
             id="path203"
             style="font-size:62.5px;line-height:1.25"
             d="m 1245.3358,370.2644 q -6.8055,0 -9.43,1.5564 -2.6245,1.5564 -2.6245,5.31006 0,2.99072 1.9531,4.76074 1.9837,1.7395 5.3711,1.7395 4.6692,0 7.4768,-3.29589 2.8382,-3.32642 2.8382,-8.81959 v -1.25122 z m 11.1999,-2.31933 v 19.50073 h -5.6152 v -5.18799 q -1.9226,3.1128 -4.7913,4.60816 -2.8686,1.46484 -7.019,1.46484 -5.2491,0 -8.3618,-2.92969 -3.0823,-2.9602 -3.0823,-7.90405 0,-5.76782 3.8452,-8.69751 3.8757,-2.92969 11.5356,-2.92969 h 7.8736 v -0.54931 q 0,-3.87574 -2.5635,-5.98145 -2.533,-2.13623 -7.1411,-2.13623 -2.9297,0 -5.7068,0.70191 -2.7771,0.7019 -5.3406,2.10571 v -5.18799 q 3.0823,-1.19019 5.9815,-1.77002 2.8991,-0.61035 5.6457,-0.61035 7.4158,0 11.0779,3.84521 3.6621,3.84522 3.6621,11.65772 z" />
          <path
             id="path205"
             style="font-size:62.5px;line-height:1.25"
             d="m 1273.6866,343.56152 v 9.70459 h 11.5661 v 4.36402 h -11.5661 v 18.55468 q 0,4.18091 1.1291,5.3711 1.1597,1.19018 4.6692,1.19018 h 5.7678 v 4.69971 h -5.7678 q -6.5002,0 -8.9721,-2.41089 -2.472,-2.4414 -2.472,-8.8501 v -18.55468 h -4.1198 v -4.36402 h 4.1198 v -9.70459 z" />
          <path
             id="path207"
             style="font-size:62.5px;line-height:1.25"
             d="m 1292.6685,353.26611 h 5.6153 v 34.17969 h -5.6153 z m 0,-13.30566 h 5.6153 v 7.11059 h -5.6153 z" />
          <path
             id="path209"
             style="font-size:62.5px;line-height:1.25"
             d="m 1338.4144,366.81592 v 20.62988 h -5.6153 v -20.44678 q 0,-4.85229 -1.8921,-7.26318 -1.892,-2.41089 -5.6762,-2.41089 -4.5471,0 -7.1717,2.89917 -2.6245,2.89917 -2.6245,7.90405 v 19.31763 h -5.6457 v -34.17969 h 5.6457 v 5.31006 q 2.0142,-3.08227 4.7303,-4.60815 2.7465,-1.52588 6.3171,-1.52588 5.8899,0 8.9111,3.66211 3.0213,3.63159 3.0213,10.71167 z" />
          <path
             id="path211"
             style="font-size:62.5px;line-height:1.25"
             d="m 1372.1668,369.95923 q 0,-6.10352 -2.5329,-9.46045 -2.5025,-3.35693 -7.0496,-3.35693 -4.5166,0 -7.0496,3.35693 -2.5024,3.35693 -2.5024,9.46045 0,6.073 2.5024,9.42993 2.533,3.35693 7.0496,3.35693 4.5471,0 7.0496,-3.35693 2.5329,-3.35693 2.5329,-9.42993 z m 5.6152,13.24463 q 0,8.72802 -3.8757,12.96997 -3.8757,4.27246 -11.8713,4.27246 -2.9602,0 -5.5847,-0.45776 -2.6246,-0.42725 -5.0965,-1.34278 v -5.46264 q 2.4719,1.34277 4.8828,1.98364 2.4109,0.64087 4.9134,0.64087 5.5236,0 8.2702,-2.89917 2.7466,-2.86866 2.7466,-8.69751 v -2.7771 q -1.7395,3.02124 -4.4556,4.5166 -2.716,1.49536 -6.5002,1.49536 -6.2866,0 -10.1318,-4.79126 -3.8453,-4.79126 -3.8453,-12.69531 0,-7.93457 3.8453,-12.72583 3.8452,-4.79126 10.1318,-4.79126 3.7842,0 6.5002,1.49536 2.7161,1.49536 4.4556,4.5166 v -5.18799 h 5.6152 z" />
        </g>
        <g
           style="font-style:normal;font-variant:normal;font-weight:normal;font-stretch:normal;line-height:0%;font-family:'League Gothic';-inkscape-font-specification:'League Gothic, Normal';text-align:start;letter-spacing:0px;word-spacing:0px;writing-mode:lr-tb;text-anchor:start;fill:#404040;fill-opacity:1;stroke:none;stroke-width:1px;stroke-linecap:butt;stroke-linejoin:miter;stroke-opacity:1"
           id="text6788"
           aria-label="25 YEARS">
          <path
             id="path214"
             style="font-size:112.482px;line-height:1.25"
             d="m 1023.3182,425.34739 v -5.73658 c 0,-5.51162 0.7874,-10.91076 3.1495,-14.84763 2.3622,-3.93687 6.4115,-6.52395 13.048,-6.52395 6.1865,0 10.3483,2.36212 12.8229,5.96154 2.4746,3.71191 3.3745,8.88608 3.3745,14.62266 0,8.43615 -3.1495,18.44705 -7.0864,27.78306 -4.0494,9.44849 -8.7736,17.88464 -11.9231,23.17129 h 19.2344 v 12.03557 h -32.9572 v -12.03557 c 3.7119,-5.73658 7.0864,-11.58565 10.1234,-17.43471 2.5871,-4.94921 5.0617,-10.57331 6.9739,-16.30989 1.9122,-5.73658 3.3744,-11.36068 3.4869,-16.42237 0,-2.24964 -0.1125,-4.83673 -0.6749,-6.74892 -0.5624,-1.9122 -1.5747,-3.37446 -3.3744,-3.37446 -1.6873,0 -2.6996,1.2373 -3.262,3.03701 -0.5624,1.9122 -0.7874,4.3868 -0.7874,7.08637 v 5.73658 z" />
          <path
             id="path216"
             style="font-size:112.482px;line-height:1.25"
             d="m 1083.7685,442.66962 c 0,-3.48694 -1.2373,-6.07403 -3.8244,-6.07403 -1.3497,0 -2.4746,1.01234 -3.3744,2.24964 -0.8999,1.34978 -1.3498,2.92453 -1.3498,3.82439 h -10.2359 v -43.53054 h 29.3578 v 12.03558 h -18.8969 v 17.20974 c 1.3498,-1.01233 2.812,-1.91219 4.4992,-2.4746 0.7874,-0.33745 1.6873,-0.44993 2.4747,-0.33745 6.2989,0 9.6734,3.59943 11.4731,7.5363 1.7997,3.93687 2.0247,8.21118 2.0247,9.56097 v 18.44705 c 0,3.93687 -0.225,9.22352 -2.3621,13.61032 -2.1372,4.49928 -6.1865,7.98622 -13.4979,7.98622 -7.5363,0 -11.3607,-3.48694 -13.4978,-8.43615 -2.1372,-4.83673 -2.3621,-11.02324 -2.3621,-16.53485 h 12.148 v 3.26197 c 0,4.16184 0.225,7.08637 0.7874,8.66112 0.5624,1.68723 1.4623,2.4746 2.9245,2.4746 1.2373,0 2.2497,-0.78737 2.8121,-2.36212 0.5624,-1.57475 0.8998,-4.49928 0.8998,-8.66111 z" />
          <path
             id="path218"
             style="font-size:112.482px;line-height:1.25"
             d="m 1134.9531,425.57235 0.3375,0.78738 h 0.2249 l 0.3375,-0.78738 6.074,-26.43327 h 11.9231 l -12.373,47.46741 v 35.20686 h -12.1481 v -35.20686 l -12.373,-47.46741 h 11.9231 z" />
          <path
             id="path220"
             style="font-size:112.482px;line-height:1.25"
             d="m 1159.1139,399.13908 h 27.7831 v 12.48551 h -15.635 v 21.70902 h 11.2482 v 13.27288 h -11.2482 v 22.72136 h 15.635 v 12.4855 h -27.7831 z" />
          <path
             id="path222"
             style="font-size:112.482px;line-height:1.25"
             d="m 1190.4507,481.81335 12.4855,-82.67427 h 14.8476 l 12.4855,82.67427 h -11.8106 l -2.2496,-16.8723 h -11.6982 l -2.2496,16.8723 z m 20.5842,-55.79107 -0.3375,-2.13716 h -0.6748 l -0.3375,2.13716 -3.4869,26.09583 h 8.3236 z" />
          <path
             id="path224"
             style="font-size:112.482px;line-height:1.25"
             d="m 1257.4952,481.81335 -6.299,-34.86942 h -3.2619 v 34.86942 h -12.1481 v -82.67427 h 12.1481 c 14.5101,0 20.6967,8.21119 20.6967,23.84619 0,8.21118 -2.1372,15.635 -6.749,18.78449 l 7.7613,40.04359 z m -9.5609,-46.11762 c 1.6872,0 3.9368,-0.22496 5.7365,-1.79971 1.7998,-1.57475 3.262,-4.61176 3.262,-10.46082 0,-5.84907 -1.4622,-8.99856 -3.262,-10.57331 -1.7997,-1.57475 -4.0493,-1.68723 -5.7365,-1.68723 z" />
          <path
             id="path226"
             style="font-size:112.482px;line-height:1.25"
             d="m 1296.5634,421.29804 c 0,-2.69957 -0.1125,-5.73658 -0.8999,-8.09871 -0.7873,-2.24964 -2.0246,-3.82438 -3.9368,-3.82438 -3.1495,0.11248 -4.1619,3.37446 -4.1619,8.21118 0,2.81205 1.2373,5.73658 3.0371,8.88608 1.7997,3.1495 4.1618,6.41147 6.5239,9.89842 2.8121,4.16183 5.6241,8.43615 7.7613,12.59798 2.1371,4.16183 3.5994,8.43615 3.5994,12.93543 0,5.51162 -0.8999,10.68579 -3.487,14.51018 -2.587,3.82439 -6.7489,6.29899 -13.3853,6.29899 -7.7613,0 -12.1481,-2.92453 -14.6227,-7.42381 -2.4746,-4.49928 -3.037,-10.46083 -3.037,-16.64734 l 11.9231,-1.12482 c 0,3.48694 0.1125,6.97389 1.0123,9.56097 0.7874,2.69957 2.1372,4.49928 4.7243,4.49928 3.5994,0 4.9492,-3.82439 4.9492,-9.11104 0,-2.69957 -1.3498,-5.84906 -3.1495,-9.11104 -1.0123,-1.57475 -2.0247,-3.26198 -3.1495,-4.94921 -2.3621,-3.37446 -4.9492,-7.19885 -7.6488,-11.36068 -2.6995,-4.16184 -4.7242,-8.43615 -5.9615,-12.82295 -0.6749,-2.13716 -1.0124,-4.3868 -1.0124,-6.63644 0,-4.49928 1.0124,-9.336 3.5995,-13.04791 2.5871,-3.59943 6.5239,-6.18651 12.2605,-6.29899 7.3113,-0.11249 11.5857,2.92453 13.9478,7.31133 2.3621,4.49928 3.037,10.0109 3.037,14.62266 z" />
        </g>
        <g
           style="font-style:normal;font-variant:normal;font-weight:normal;font-stretch:normal;line-height:0%;font-family:'League Gothic';-inkscape-font-specification:'League Gothic, Normal';text-align:start;letter-spacing:0px;word-spacing:0px;writing-mode:lr-tb;text-anchor:start;fill:#404040;fill-opacity:1;stroke:none;stroke-width:1px;stroke-linecap:butt;stroke-linejoin:miter;stroke-opacity:1"
           id="text6792"
           aria-label="!">
          <path
             id="path229"
             style="font-size:108.165px;line-height:1.25"
             d="m 1322.6264,403.21195 h 12.6553 l -2.9205,58.08461 h -6.8144 z m 0.649,67.49496 h 11.3573 v 12.00632 h -11.3573 z" />
        </g>
      </g>
    </g>
  </g>
</svg>
